<svg id="Group_71888" data-name="Group 71888" xmlns="http://www.w3.org/2000/svg" width="17.491" height="17.487" viewBox="0 0 17.491 17.487">
  <path id="Subtraction_1" data-name="Subtraction 1" d="M8.744,17.487A8.744,8.744,0,0,1,8.74,0h.007a8.744,8.744,0,1,1,0,17.487ZM8.763,1.282a7.421,7.421,0,1,0,.019,0Z" transform="translate(0 0)"/>
  <path id="Subtraction_4" data-name="Subtraction 4" d="M4.534,3.227H4.47A5.259,5.259,0,0,1,.072.83L.053.8A.2.2,0,0,1,.006.62.2.2,0,0,1,.134.476L.157.466A6.488,6.488,0,0,0,.831.059L.841.053A.237.237,0,0,1,.988,0h.024A.255.255,0,0,1,1.16.119l0,.007a3.857,3.857,0,0,0,2.274,1.66A3.924,3.924,0,0,0,4.5,1.933,3.914,3.914,0,0,0,7.79.151L7.8.127A.22.22,0,0,1,7.96,0,.225.225,0,0,1,8,0a.221.221,0,0,1,.149.057l.021.017c.178.121.368.231.552.338l.019.011.116.067L8.871.5a.209.209,0,0,1,.107.122.219.219,0,0,1-.043.159L8.926.79A5.259,5.259,0,0,1,5.333,3.147,4.2,4.2,0,0,1,4.534,3.227Z" transform="translate(4.281 11.41)"/>
  <path id="Subtraction_2" data-name="Subtraction 2" d="M1.216,2.431A1.219,1.219,0,0,1,0,1.227,1.231,1.231,0,0,1,1.226,0a1.216,1.216,0,0,1-.011,2.431Z" transform="translate(9.857 6.399)"/>
  <path id="Subtraction_3" data-name="Subtraction 3" d="M1.216,2.431A1.216,1.216,0,0,1,1.211,0h.008a1.216,1.216,0,0,1,0,2.431Z" transform="translate(5.248 6.405)"/>
</svg>
